<?xml version="1.0" encoding="UTF-8" standalone="no"?>
<!DOCTYPE svg PUBLIC "-//W3C//DTD SVG 1.1//EN"
 "http://www.w3.org/Graphics/SVG/1.1/DTD/svg11.dtd">
<!-- Generated by graphviz version 2.38.0 (20140413.2041)
 -->
<!-- Title: pt Pages: 1 -->
<svg width="1178pt" height="281pt"
 viewBox="0.00 0.00 1178.00 281.00" xmlns="http://www.w3.org/2000/svg" xmlns:xlink="http://www.w3.org/1999/xlink">
<g id="graph0" class="graph" transform="scale(1 1) rotate(0) translate(4 277)">
<title>pt</title>
<!-- b00bb1e8&#45;5a87&#45;4390&#45;aea6&#45;706355df379c -->
<g id="node1" class="node"><title>b00bb1e8&#45;5a87&#45;4390&#45;aea6&#45;706355df379c</title>
<ellipse fill="none" stroke="black" cx="635" cy="-251.5" rx="21.5" ry="21.5"/>
<text text-anchor="middle" x="635" y="-247.8" font-family="Times New Roman,serif" font-size="14.00">&#45;&gt;</text>
</g>
<!-- eaea6d52&#45;543c&#45;4b59&#45;9dba&#45;6e1ffcad6deb -->
<g id="node2" class="node"><title>eaea6d52&#45;543c&#45;4b59&#45;9dba&#45;6e1ffcad6deb</title>
<polygon fill="none" stroke="black" points="397,-190.5 217,-190.5 217,-154.5 397,-154.5 397,-190.5"/>
<text text-anchor="middle" x="307" y="-170.6" font-family="Times New Roman,serif" font-size="8.00">a</text>
</g>
<!-- b00bb1e8&#45;5a87&#45;4390&#45;aea6&#45;706355df379c&#45;&gt;eaea6d52&#45;543c&#45;4b59&#45;9dba&#45;6e1ffcad6deb -->
<g id="edge1" class="edge"><title>b00bb1e8&#45;5a87&#45;4390&#45;aea6&#45;706355df379c&#45;&gt;eaea6d52&#45;543c&#45;4b59&#45;9dba&#45;6e1ffcad6deb</title>
<path fill="none" stroke="black" d="M613.983,-245.566C569.599,-235.147 464.247,-210.415 389.369,-192.837"/>
<polygon fill="black" stroke="black" points="390.011,-189.392 379.476,-190.514 388.411,-196.207 390.011,-189.392"/>
</g>
<!-- 3d99f971&#45;8def&#45;442d&#45;9ac2&#45;c05669fb1068 -->
<g id="node3" class="node"><title>3d99f971&#45;8def&#45;442d&#45;9ac2&#45;c05669fb1068</title>
<polygon fill="none" stroke="black" points="595,-190.5 415,-190.5 415,-154.5 595,-154.5 595,-190.5"/>
<text text-anchor="middle" x="505" y="-170.6" font-family="Times New Roman,serif" font-size="8.00">b</text>
</g>
<!-- b00bb1e8&#45;5a87&#45;4390&#45;aea6&#45;706355df379c&#45;&gt;3d99f971&#45;8def&#45;442d&#45;9ac2&#45;c05669fb1068 -->
<g id="edge2" class="edge"><title>b00bb1e8&#45;5a87&#45;4390&#45;aea6&#45;706355df379c&#45;&gt;3d99f971&#45;8def&#45;442d&#45;9ac2&#45;c05669fb1068</title>
<path fill="none" stroke="black" d="M616.924,-239.793C597.786,-228.458 567.028,-210.24 542.594,-195.767"/>
<polygon fill="black" stroke="black" points="544.299,-192.71 533.912,-190.625 540.732,-198.732 544.299,-192.71"/>
</g>
<!-- fda9b1be&#45;8e16&#45;4433&#45;bce8&#45;f26f1ce97a2d -->
<g id="node4" class="node"><title>fda9b1be&#45;8e16&#45;4433&#45;bce8&#45;f26f1ce97a2d</title>
<ellipse fill="none" stroke="black" cx="635" cy="-172.5" rx="21.5" ry="21.5"/>
<text text-anchor="middle" x="635" y="-168.8" font-family="Times New Roman,serif" font-size="14.00">+</text>
</g>
<!-- b00bb1e8&#45;5a87&#45;4390&#45;aea6&#45;706355df379c&#45;&gt;fda9b1be&#45;8e16&#45;4433&#45;bce8&#45;f26f1ce97a2d -->
<g id="edge3" class="edge"><title>b00bb1e8&#45;5a87&#45;4390&#45;aea6&#45;706355df379c&#45;&gt;fda9b1be&#45;8e16&#45;4433&#45;bce8&#45;f26f1ce97a2d</title>
<path fill="none" stroke="black" d="M635,-229.865C635,-222.011 635,-212.882 635,-204.288"/>
<polygon fill="black" stroke="black" points="638.5,-204.192 635,-194.192 631.5,-204.192 638.5,-204.192"/>
</g>
<!-- 8967d3de&#45;bd74&#45;46b3&#45;b87c&#45;cd9725b46d32 -->
<g id="node13" class="node"><title>8967d3de&#45;bd74&#45;46b3&#45;b87c&#45;cd9725b46d32</title>
<polygon fill="none" stroke="black" points="855,-190.5 675,-190.5 675,-154.5 855,-154.5 855,-190.5"/>
<text text-anchor="middle" x="765" y="-170.6" font-family="Times New Roman,serif" font-size="8.00">i</text>
</g>
<!-- b00bb1e8&#45;5a87&#45;4390&#45;aea6&#45;706355df379c&#45;&gt;8967d3de&#45;bd74&#45;46b3&#45;b87c&#45;cd9725b46d32 -->
<g id="edge12" class="edge"><title>b00bb1e8&#45;5a87&#45;4390&#45;aea6&#45;706355df379c&#45;&gt;8967d3de&#45;bd74&#45;46b3&#45;b87c&#45;cd9725b46d32</title>
<path fill="none" stroke="black" d="M653.076,-239.793C672.214,-228.458 702.972,-210.24 727.406,-195.767"/>
<polygon fill="black" stroke="black" points="729.268,-198.732 736.088,-190.625 725.701,-192.71 729.268,-198.732"/>
</g>
<!-- 831a722b&#45;ad8e&#45;420a&#45;a626&#45;425dad2c6284 -->
<g id="node14" class="node"><title>831a722b&#45;ad8e&#45;420a&#45;a626&#45;425dad2c6284</title>
<polygon fill="none" stroke="black" points="1053,-190.5 873,-190.5 873,-154.5 1053,-154.5 1053,-190.5"/>
<text text-anchor="middle" x="963" y="-170.6" font-family="Times New Roman,serif" font-size="8.00">j</text>
</g>
<!-- b00bb1e8&#45;5a87&#45;4390&#45;aea6&#45;706355df379c&#45;&gt;831a722b&#45;ad8e&#45;420a&#45;a626&#45;425dad2c6284 -->
<g id="edge13" class="edge"><title>b00bb1e8&#45;5a87&#45;4390&#45;aea6&#45;706355df379c&#45;&gt;831a722b&#45;ad8e&#45;420a&#45;a626&#45;425dad2c6284</title>
<path fill="none" stroke="black" d="M656.017,-245.566C700.401,-235.147 805.753,-210.415 880.631,-192.837"/>
<polygon fill="black" stroke="black" points="881.589,-196.207 890.524,-190.514 879.989,-189.392 881.589,-196.207"/>
</g>
<!-- c8e60b23&#45;34c7&#45;4e4a&#45;81e8&#45;d591598719e2 -->
<g id="node5" class="node"><title>c8e60b23&#45;34c7&#45;4e4a&#45;81e8&#45;d591598719e2</title>
<ellipse fill="none" stroke="black" cx="387" cy="-93.5" rx="21.5" ry="21.5"/>
<text text-anchor="middle" x="387" y="-89.8" font-family="Times New Roman,serif" font-size="14.00">&#45;&gt;</text>
</g>
<!-- fda9b1be&#45;8e16&#45;4433&#45;bce8&#45;f26f1ce97a2d&#45;&gt;c8e60b23&#45;34c7&#45;4e4a&#45;81e8&#45;d591598719e2 -->
<g id="edge4" class="edge"><title>fda9b1be&#45;8e16&#45;4433&#45;bce8&#45;f26f1ce97a2d&#45;&gt;c8e60b23&#45;34c7&#45;4e4a&#45;81e8&#45;d591598719e2</title>
<path fill="none" stroke="black" d="M618.201,-158.949C613.749,-156.033 608.832,-153.155 604,-151 540.936,-122.876 461.087,-106.6 417.988,-99.2561"/>
<polygon fill="black" stroke="black" points="418.544,-95.8006 408.107,-97.62 417.401,-102.707 418.544,-95.8006"/>
</g>
<!-- 8f3193d1&#45;ad25&#45;42b5&#45;8a45&#45;9070ed9f3c36 -->
<g id="node9" class="node"><title>8f3193d1&#45;ad25&#45;42b5&#45;8a45&#45;9070ed9f3c36</title>
<ellipse fill="none" stroke="black" cx="783" cy="-93.5" rx="21.5" ry="21.5"/>
<text text-anchor="middle" x="783" y="-89.8" font-family="Times New Roman,serif" font-size="14.00">&#45;&gt;</text>
</g>
<!-- fda9b1be&#45;8e16&#45;4433&#45;bce8&#45;f26f1ce97a2d&#45;&gt;8f3193d1&#45;ad25&#45;42b5&#45;8a45&#45;9070ed9f3c36 -->
<g id="edge8" class="edge"><title>fda9b1be&#45;8e16&#45;4433&#45;bce8&#45;f26f1ce97a2d&#45;&gt;8f3193d1&#45;ad25&#45;42b5&#45;8a45&#45;9070ed9f3c36</title>
<path fill="none" stroke="black" d="M652.448,-159.373C656.803,-156.511 661.513,-153.552 666,-151 695.297,-134.339 730.251,-117.88 754.279,-107.063"/>
<polygon fill="black" stroke="black" points="755.84,-110.199 763.545,-102.927 752.987,-103.807 755.84,-110.199"/>
</g>
<!-- e54dd279&#45;d5ca&#45;4081&#45;95ca&#45;7eb3e97f7f50 -->
<g id="node6" class="node"><title>e54dd279&#45;d5ca&#45;4081&#45;95ca&#45;7eb3e97f7f50</title>
<polygon fill="none" stroke="black" points="180,-36 0,-36 0,-0 180,-0 180,-36"/>
<text text-anchor="middle" x="90" y="-16.1" font-family="Times New Roman,serif" font-size="8.00">c</text>
</g>
<!-- c8e60b23&#45;34c7&#45;4e4a&#45;81e8&#45;d591598719e2&#45;&gt;e54dd279&#45;d5ca&#45;4081&#45;95ca&#45;7eb3e97f7f50 -->
<g id="edge5" class="edge"><title>c8e60b23&#45;34c7&#45;4e4a&#45;81e8&#45;d591598719e2&#45;&gt;e54dd279&#45;d5ca&#45;4081&#45;95ca&#45;7eb3e97f7f50</title>
<path fill="none" stroke="black" d="M366.116,-87.3316C325.801,-77.3548 235.376,-54.9769 168.943,-38.5365"/>
<polygon fill="black" stroke="black" points="169.46,-35.0588 158.912,-36.054 167.778,-41.8538 169.46,-35.0588"/>
</g>
<!-- 0d713233&#45;7b7b&#45;4ab8&#45;94ef&#45;6e886bbd4fec -->
<g id="node7" class="node"><title>0d713233&#45;7b7b&#45;4ab8&#45;94ef&#45;6e886bbd4fec</title>
<polygon fill="none" stroke="black" points="378,-36 198,-36 198,-0 378,-0 378,-36"/>
<text text-anchor="middle" x="288" y="-16.1" font-family="Times New Roman,serif" font-size="8.00">d</text>
</g>
<!-- c8e60b23&#45;34c7&#45;4e4a&#45;81e8&#45;d591598719e2&#45;&gt;0d713233&#45;7b7b&#45;4ab8&#45;94ef&#45;6e886bbd4fec -->
<g id="edge6" class="edge"><title>c8e60b23&#45;34c7&#45;4e4a&#45;81e8&#45;d591598719e2&#45;&gt;0d713233&#45;7b7b&#45;4ab8&#45;94ef&#45;6e886bbd4fec</title>
<path fill="none" stroke="black" d="M370.206,-80.0317C356.395,-69.7778 336.434,-54.9589 319.641,-42.4912"/>
<polygon fill="black" stroke="black" points="321.313,-39.3732 311.197,-36.2223 317.14,-44.9936 321.313,-39.3732"/>
</g>
<!-- 94a52abf&#45;442b&#45;442f&#45;8186&#45;9ff32fa4f11d -->
<g id="node8" class="node"><title>94a52abf&#45;442b&#45;442f&#45;8186&#45;9ff32fa4f11d</title>
<polygon fill="none" stroke="black" points="576,-36 396,-36 396,-0 576,-0 576,-36"/>
<text text-anchor="middle" x="486" y="-16.1" font-family="Times New Roman,serif" font-size="8.00">e</text>
</g>
<!-- c8e60b23&#45;34c7&#45;4e4a&#45;81e8&#45;d591598719e2&#45;&gt;94a52abf&#45;442b&#45;442f&#45;8186&#45;9ff32fa4f11d -->
<g id="edge7" class="edge"><title>c8e60b23&#45;34c7&#45;4e4a&#45;81e8&#45;d591598719e2&#45;&gt;94a52abf&#45;442b&#45;442f&#45;8186&#45;9ff32fa4f11d</title>
<path fill="none" stroke="black" d="M403.794,-80.0317C417.605,-69.7778 437.566,-54.9589 454.359,-42.4912"/>
<polygon fill="black" stroke="black" points="456.86,-44.9936 462.803,-36.2223 452.687,-39.3732 456.86,-44.9936"/>
</g>
<!-- 3235c3ba&#45;ee4c&#45;4451&#45;87f2&#45;b8d95e5694fe -->
<g id="node10" class="node"><title>3235c3ba&#45;ee4c&#45;4451&#45;87f2&#45;b8d95e5694fe</title>
<polygon fill="none" stroke="black" points="774,-36 594,-36 594,-0 774,-0 774,-36"/>
<text text-anchor="middle" x="684" y="-16.1" font-family="Times New Roman,serif" font-size="8.00">f</text>
</g>
<!-- 8f3193d1&#45;ad25&#45;42b5&#45;8a45&#45;9070ed9f3c36&#45;&gt;3235c3ba&#45;ee4c&#45;4451&#45;87f2&#45;b8d95e5694fe -->
<g id="edge9" class="edge"><title>8f3193d1&#45;ad25&#45;42b5&#45;8a45&#45;9070ed9f3c36&#45;&gt;3235c3ba&#45;ee4c&#45;4451&#45;87f2&#45;b8d95e5694fe</title>
<path fill="none" stroke="black" d="M766.206,-80.0317C752.395,-69.7778 732.434,-54.9589 715.641,-42.4912"/>
<polygon fill="black" stroke="black" points="717.313,-39.3732 707.197,-36.2223 713.14,-44.9936 717.313,-39.3732"/>
</g>
<!-- 82e74f55&#45;3b3c&#45;47e0&#45;977a&#45;d4d32a591409 -->
<g id="node11" class="node"><title>82e74f55&#45;3b3c&#45;47e0&#45;977a&#45;d4d32a591409</title>
<polygon fill="none" stroke="black" points="972,-36 792,-36 792,-0 972,-0 972,-36"/>
<text text-anchor="middle" x="882" y="-16.1" font-family="Times New Roman,serif" font-size="8.00">g</text>
</g>
<!-- 8f3193d1&#45;ad25&#45;42b5&#45;8a45&#45;9070ed9f3c36&#45;&gt;82e74f55&#45;3b3c&#45;47e0&#45;977a&#45;d4d32a591409 -->
<g id="edge10" class="edge"><title>8f3193d1&#45;ad25&#45;42b5&#45;8a45&#45;9070ed9f3c36&#45;&gt;82e74f55&#45;3b3c&#45;47e0&#45;977a&#45;d4d32a591409</title>
<path fill="none" stroke="black" d="M799.794,-80.0317C813.605,-69.7778 833.566,-54.9589 850.359,-42.4912"/>
<polygon fill="black" stroke="black" points="852.86,-44.9936 858.803,-36.2223 848.687,-39.3732 852.86,-44.9936"/>
</g>
<!-- a5f9030f&#45;9bd6&#45;4ec5&#45;8b7a&#45;afbd3ec08861 -->
<g id="node12" class="node"><title>a5f9030f&#45;9bd6&#45;4ec5&#45;8b7a&#45;afbd3ec08861</title>
<polygon fill="none" stroke="black" points="1170,-36 990,-36 990,-0 1170,-0 1170,-36"/>
<text text-anchor="middle" x="1080" y="-16.1" font-family="Times New Roman,serif" font-size="8.00">h</text>
</g>
<!-- 8f3193d1&#45;ad25&#45;42b5&#45;8a45&#45;9070ed9f3c36&#45;&gt;a5f9030f&#45;9bd6&#45;4ec5&#45;8b7a&#45;afbd3ec08861 -->
<g id="edge11" class="edge"><title>8f3193d1&#45;ad25&#45;42b5&#45;8a45&#45;9070ed9f3c36&#45;&gt;a5f9030f&#45;9bd6&#45;4ec5&#45;8b7a&#45;afbd3ec08861</title>
<path fill="none" stroke="black" d="M803.884,-87.3316C844.199,-77.3548 934.624,-54.9769 1001.06,-38.5365"/>
<polygon fill="black" stroke="black" points="1002.22,-41.8538 1011.09,-36.054 1000.54,-35.0588 1002.22,-41.8538"/>
</g>
</g>
</svg>
