<?xml version="1.0" encoding="UTF-8" standalone="no"?>
<!DOCTYPE svg PUBLIC "-//W3C//DTD SVG 1.1//EN"
 "http://www.w3.org/Graphics/SVG/1.1/DTD/svg11.dtd">
<!-- Generated by graphviz version 2.38.0 (20140413.2041)
 -->
<!-- Title: pt Pages: 1 -->
<svg width="912pt" height="281pt"
 viewBox="0.00 0.00 912.00 281.00" xmlns="http://www.w3.org/2000/svg" xmlns:xlink="http://www.w3.org/1999/xlink">
<g id="graph0" class="graph" transform="scale(1 1) rotate(0) translate(4 277)">
<title>pt</title>
<!-- ec7ccde5&#45;2acd&#45;4276&#45;837e&#45;0daa45b7e173 -->
<g id="node1" class="node"><title>ec7ccde5&#45;2acd&#45;4276&#45;837e&#45;0daa45b7e173</title>
<ellipse fill="none" stroke="black" cx="534" cy="-251.5" rx="21.5" ry="21.5"/>
<text text-anchor="middle" x="534" y="-247.8" font-family="Times New Roman,serif" font-size="14.00">&#45;&gt;</text>
</g>
<!-- 1502b47f&#45;5bbd&#45;4653&#45;b50c&#45;ca245526b6ea -->
<g id="node2" class="node"><title>1502b47f&#45;5bbd&#45;4653&#45;b50c&#45;ca245526b6ea</title>
<ellipse fill="none" stroke="black" cx="370" cy="-172.5" rx="21.5" ry="21.5"/>
<text text-anchor="middle" x="370" y="-168.8" font-family="Times New Roman,serif" font-size="14.00">*</text>
</g>
<!-- ec7ccde5&#45;2acd&#45;4276&#45;837e&#45;0daa45b7e173&#45;&gt;1502b47f&#45;5bbd&#45;4653&#45;b50c&#45;ca245526b6ea -->
<g id="edge1" class="edge"><title>ec7ccde5&#45;2acd&#45;4276&#45;837e&#45;0daa45b7e173&#45;&gt;1502b47f&#45;5bbd&#45;4653&#45;b50c&#45;ca245526b6ea</title>
<path fill="none" stroke="black" d="M514.866,-241.516C486.181,-228.048 431.845,-202.537 398.486,-186.875"/>
<polygon fill="black" stroke="black" points="399.805,-183.627 389.265,-182.545 396.83,-189.964 399.805,-183.627"/>
</g>
<!-- 973813be&#45;917a&#45;4bcb&#45;9e2b&#45;55d0d79a527c -->
<g id="node6" class="node"><title>973813be&#45;917a&#45;4bcb&#45;9e2b&#45;55d0d79a527c</title>
<ellipse fill="none" stroke="black" cx="616" cy="-172.5" rx="21.5" ry="21.5"/>
<text text-anchor="middle" x="616" y="-168.8" font-family="Times New Roman,serif" font-size="14.00">X</text>
</g>
<!-- ec7ccde5&#45;2acd&#45;4276&#45;837e&#45;0daa45b7e173&#45;&gt;973813be&#45;917a&#45;4bcb&#45;9e2b&#45;55d0d79a527c -->
<g id="edge5" class="edge"><title>ec7ccde5&#45;2acd&#45;4276&#45;837e&#45;0daa45b7e173&#45;&gt;973813be&#45;917a&#45;4bcb&#45;9e2b&#45;55d0d79a527c</title>
<path fill="none" stroke="black" d="M549.424,-236.017C561.793,-224.402 579.334,-207.93 593.306,-194.81"/>
<polygon fill="black" stroke="black" points="595.752,-197.315 600.646,-187.918 590.96,-192.212 595.752,-197.315"/>
</g>
<!-- 7ffff4c0&#45;1884&#45;4fe2&#45;a66e&#45;5ed96f67b418 -->
<g id="node3" class="node"><title>7ffff4c0&#45;1884&#45;4fe2&#45;a66e&#45;5ed96f67b418</title>
<polygon fill="none" stroke="black" points="180,-111.5 0,-111.5 0,-75.5 180,-75.5 180,-111.5"/>
<text text-anchor="middle" x="90" y="-91.6" font-family="Times New Roman,serif" font-size="8.00">Order</text>
</g>
<!-- 1502b47f&#45;5bbd&#45;4653&#45;b50c&#45;ca245526b6ea&#45;&gt;7ffff4c0&#45;1884&#45;4fe2&#45;a66e&#45;5ed96f67b418 -->
<g id="edge2" class="edge"><title>1502b47f&#45;5bbd&#45;4653&#45;b50c&#45;ca245526b6ea&#45;&gt;7ffff4c0&#45;1884&#45;4fe2&#45;a66e&#45;5ed96f67b418</title>
<path fill="none" stroke="black" d="M349.411,-165.838C310.39,-155.107 223.996,-131.349 161.615,-114.194"/>
<polygon fill="black" stroke="black" points="162.39,-110.777 151.82,-111.501 160.534,-117.527 162.39,-110.777"/>
</g>
<!-- 69679b96&#45;7da7&#45;4c6b&#45;aa45&#45;28cbbcea7450 -->
<g id="node4" class="node"><title>69679b96&#45;7da7&#45;4c6b&#45;aa45&#45;28cbbcea7450</title>
<polygon fill="black" stroke="black" points="378,-111.5 198,-111.5 198,-75.5 378,-75.5 378,-111.5"/>
<text text-anchor="middle" x="288" y="-91.6" font-family="Times New Roman,serif" font-size="8.00">tau</text>
</g>
<!-- 1502b47f&#45;5bbd&#45;4653&#45;b50c&#45;ca245526b6ea&#45;&gt;69679b96&#45;7da7&#45;4c6b&#45;aa45&#45;28cbbcea7450 -->
<g id="edge3" class="edge"><title>1502b47f&#45;5bbd&#45;4653&#45;b50c&#45;ca245526b6ea&#45;&gt;69679b96&#45;7da7&#45;4c6b&#45;aa45&#45;28cbbcea7450</title>
<path fill="none" stroke="black" d="M354.576,-157.017C343.097,-146.237 327.164,-131.276 313.763,-118.692"/>
<polygon fill="black" stroke="black" points="315.903,-115.901 306.218,-111.607 311.112,-121.004 315.903,-115.901"/>
</g>
<!-- cccbe242&#45;ea9b&#45;423c&#45;9fe3&#45;fd1fc1a41984 -->
<g id="node5" class="node"><title>cccbe242&#45;ea9b&#45;423c&#45;9fe3&#45;fd1fc1a41984</title>
<polygon fill="black" stroke="black" points="576,-111.5 396,-111.5 396,-75.5 576,-75.5 576,-111.5"/>
<text text-anchor="middle" x="486" y="-91.6" font-family="Times New Roman,serif" font-size="8.00">tau</text>
</g>
<!-- 1502b47f&#45;5bbd&#45;4653&#45;b50c&#45;ca245526b6ea&#45;&gt;cccbe242&#45;ea9b&#45;423c&#45;9fe3&#45;fd1fc1a41984 -->
<g id="edge4" class="edge"><title>1502b47f&#45;5bbd&#45;4653&#45;b50c&#45;ca245526b6ea&#45;&gt;cccbe242&#45;ea9b&#45;423c&#45;9fe3&#45;fd1fc1a41984</title>
<path fill="none" stroke="black" d="M387.618,-159.805C404.552,-148.564 430.604,-131.271 451.646,-117.304"/>
<polygon fill="black" stroke="black" points="453.626,-120.191 460.022,-111.744 449.754,-114.359 453.626,-120.191"/>
</g>
<!-- b511eab9&#45;50dc&#45;4dc2&#45;a95e&#45;6083aa441ca6 -->
<g id="node7" class="node"><title>b511eab9&#45;50dc&#45;4dc2&#45;a95e&#45;6083aa441ca6</title>
<ellipse fill="none" stroke="black" cx="616" cy="-93.5" rx="21.5" ry="21.5"/>
<text text-anchor="middle" x="616" y="-89.8" font-family="Times New Roman,serif" font-size="14.00">*</text>
</g>
<!-- 973813be&#45;917a&#45;4bcb&#45;9e2b&#45;55d0d79a527c&#45;&gt;b511eab9&#45;50dc&#45;4dc2&#45;a95e&#45;6083aa441ca6 -->
<g id="edge6" class="edge"><title>973813be&#45;917a&#45;4bcb&#45;9e2b&#45;55d0d79a527c&#45;&gt;b511eab9&#45;50dc&#45;4dc2&#45;a95e&#45;6083aa441ca6</title>
<path fill="none" stroke="black" d="M616,-150.865C616,-143.011 616,-133.882 616,-125.288"/>
<polygon fill="black" stroke="black" points="619.5,-125.192 616,-115.192 612.5,-125.192 619.5,-125.192"/>
</g>
<!-- 145bfbe7&#45;23c2&#45;4dde&#45;b456&#45;0b478e5ab9aa -->
<g id="node11" class="node"><title>145bfbe7&#45;23c2&#45;4dde&#45;b456&#45;0b478e5ab9aa</title>
<polygon fill="black" stroke="black" points="836,-111.5 656,-111.5 656,-75.5 836,-75.5 836,-111.5"/>
<text text-anchor="middle" x="746" y="-91.6" font-family="Times New Roman,serif" font-size="8.00">tau</text>
</g>
<!-- 973813be&#45;917a&#45;4bcb&#45;9e2b&#45;55d0d79a527c&#45;&gt;145bfbe7&#45;23c2&#45;4dde&#45;b456&#45;0b478e5ab9aa -->
<g id="edge10" class="edge"><title>973813be&#45;917a&#45;4bcb&#45;9e2b&#45;55d0d79a527c&#45;&gt;145bfbe7&#45;23c2&#45;4dde&#45;b456&#45;0b478e5ab9aa</title>
<path fill="none" stroke="black" d="M634.076,-160.793C653.214,-149.458 683.972,-131.24 708.406,-116.767"/>
<polygon fill="black" stroke="black" points="710.268,-119.732 717.088,-111.625 706.701,-113.71 710.268,-119.732"/>
</g>
<!-- fc73f825&#45;cad0&#45;4729&#45;b9bf&#45;4ef1fc9f6359 -->
<g id="node8" class="node"><title>fc73f825&#45;cad0&#45;4729&#45;b9bf&#45;4ef1fc9f6359</title>
<polygon fill="none" stroke="black" points="508,-36 328,-36 328,-0 508,-0 508,-36"/>
<text text-anchor="middle" x="418" y="-16.1" font-family="Times New Roman,serif" font-size="8.00">Admission Hospital</text>
</g>
<!-- b511eab9&#45;50dc&#45;4dc2&#45;a95e&#45;6083aa441ca6&#45;&gt;fc73f825&#45;cad0&#45;4729&#45;b9bf&#45;4ef1fc9f6359 -->
<g id="edge7" class="edge"><title>b511eab9&#45;50dc&#45;4dc2&#45;a95e&#45;6083aa441ca6&#45;&gt;fc73f825&#45;cad0&#45;4729&#45;b9bf&#45;4ef1fc9f6359</title>
<path fill="none" stroke="black" d="M599.12,-80.1242C594.67,-77.2044 589.774,-74.2813 585,-72 557.012,-58.6253 524.823,-47.4961 496.22,-38.9457"/>
<polygon fill="black" stroke="black" points="496.846,-35.4821 486.265,-36.0295 494.878,-42.1997 496.846,-35.4821"/>
</g>
<!-- 6fc14701&#45;ad2a&#45;46f2&#45;8457&#45;2c2afc4b311d -->
<g id="node9" class="node"><title>6fc14701&#45;ad2a&#45;46f2&#45;8457&#45;2c2afc4b311d</title>
<polygon fill="black" stroke="black" points="706,-36 526,-36 526,-0 706,-0 706,-36"/>
<text text-anchor="middle" x="616" y="-16.1" font-family="Times New Roman,serif" font-size="8.00">tau</text>
</g>
<!-- b511eab9&#45;50dc&#45;4dc2&#45;a95e&#45;6083aa441ca6&#45;&gt;6fc14701&#45;ad2a&#45;46f2&#45;8457&#45;2c2afc4b311d -->
<g id="edge8" class="edge"><title>b511eab9&#45;50dc&#45;4dc2&#45;a95e&#45;6083aa441ca6&#45;&gt;6fc14701&#45;ad2a&#45;46f2&#45;8457&#45;2c2afc4b311d</title>
<path fill="none" stroke="black" d="M616,-71.6345C616,-63.7563 616,-54.6723 616,-46.2922"/>
<polygon fill="black" stroke="black" points="619.5,-46.1976 616,-36.1977 612.5,-46.1977 619.5,-46.1976"/>
</g>
<!-- a1a4cd94&#45;9eb7&#45;49a2&#45;ac07&#45;6244955ad8af -->
<g id="node10" class="node"><title>a1a4cd94&#45;9eb7&#45;49a2&#45;ac07&#45;6244955ad8af</title>
<polygon fill="black" stroke="black" points="904,-36 724,-36 724,-0 904,-0 904,-36"/>
<text text-anchor="middle" x="814" y="-16.1" font-family="Times New Roman,serif" font-size="8.00">tau</text>
</g>
<!-- b511eab9&#45;50dc&#45;4dc2&#45;a95e&#45;6083aa441ca6&#45;&gt;a1a4cd94&#45;9eb7&#45;49a2&#45;ac07&#45;6244955ad8af -->
<g id="edge9" class="edge"><title>b511eab9&#45;50dc&#45;4dc2&#45;a95e&#45;6083aa441ca6&#45;&gt;a1a4cd94&#45;9eb7&#45;49a2&#45;ac07&#45;6244955ad8af</title>
<path fill="none" stroke="black" d="M632.88,-80.1242C637.33,-77.2044 642.226,-74.2813 647,-72 674.988,-58.6253 707.177,-47.4961 735.78,-38.9457"/>
<polygon fill="black" stroke="black" points="737.122,-42.1997 745.735,-36.0295 735.154,-35.4821 737.122,-42.1997"/>
</g>
</g>
</svg>
