<?xml version="1.0" encoding="UTF-8" standalone="no"?>
<!DOCTYPE svg PUBLIC "-//W3C//DTD SVG 1.1//EN"
 "http://www.w3.org/Graphics/SVG/1.1/DTD/svg11.dtd">
<!-- Generated by graphviz version 2.38.0 (20140413.2041)
 -->
<!-- Title: pt Pages: 1 -->
<svg width="2131pt" height="360pt"
 viewBox="0.00 0.00 2131.00 360.00" xmlns="http://www.w3.org/2000/svg" xmlns:xlink="http://www.w3.org/1999/xlink">
<g id="graph0" class="graph" transform="scale(1 1) rotate(0) translate(4 356)">
<title>pt</title>
<!-- 5635d4e4&#45;19ca&#45;4cfc&#45;92bd&#45;1523fd236e1c -->
<g id="node1" class="node"><title>5635d4e4&#45;19ca&#45;4cfc&#45;92bd&#45;1523fd236e1c</title>
<ellipse fill="none" stroke="black" cx="862" cy="-330.5" rx="21.5" ry="21.5"/>
<text text-anchor="middle" x="862" y="-326.8" font-family="Times New Roman,serif" font-size="14.00">&#45;&gt;</text>
</g>
<!-- e9bb9261&#45;5621&#45;4894&#45;b8ac&#45;2f9029f3edeb -->
<g id="node2" class="node"><title>e9bb9261&#45;5621&#45;4894&#45;b8ac&#45;2f9029f3edeb</title>
<ellipse fill="none" stroke="black" cx="387" cy="-251.5" rx="21.5" ry="21.5"/>
<text text-anchor="middle" x="387" y="-247.8" font-family="Times New Roman,serif" font-size="14.00">*</text>
</g>
<!-- 5635d4e4&#45;19ca&#45;4cfc&#45;92bd&#45;1523fd236e1c&#45;&gt;e9bb9261&#45;5621&#45;4894&#45;b8ac&#45;2f9029f3edeb -->
<g id="edge1" class="edge"><title>5635d4e4&#45;19ca&#45;4cfc&#45;92bd&#45;1523fd236e1c&#45;&gt;e9bb9261&#45;5621&#45;4894&#45;b8ac&#45;2f9029f3edeb</title>
<path fill="none" stroke="black" d="M840.667,-326.042C764.861,-313.753 508.227,-272.152 418.381,-257.587"/>
<polygon fill="black" stroke="black" points="418.705,-254.094 408.274,-255.949 417.585,-261.004 418.705,-254.094"/>
</g>
<!-- 9b5787a2&#45;86c0&#45;4944&#45;94c2&#45;b20c7d6b1171 -->
<g id="node6" class="node"><title>9b5787a2&#45;86c0&#45;4944&#45;94c2&#45;b20c7d6b1171</title>
<ellipse fill="none" stroke="black" cx="780" cy="-251.5" rx="21.5" ry="21.5"/>
<text text-anchor="middle" x="780" y="-247.8" font-family="Times New Roman,serif" font-size="14.00">X</text>
</g>
<!-- 5635d4e4&#45;19ca&#45;4cfc&#45;92bd&#45;1523fd236e1c&#45;&gt;9b5787a2&#45;86c0&#45;4944&#45;94c2&#45;b20c7d6b1171 -->
<g id="edge5" class="edge"><title>5635d4e4&#45;19ca&#45;4cfc&#45;92bd&#45;1523fd236e1c&#45;&gt;9b5787a2&#45;86c0&#45;4944&#45;94c2&#45;b20c7d6b1171</title>
<path fill="none" stroke="black" d="M846.576,-315.017C834.207,-303.402 816.666,-286.93 802.694,-273.81"/>
<polygon fill="black" stroke="black" points="805.04,-271.212 795.354,-266.918 800.248,-276.315 805.04,-271.212"/>
</g>
<!-- f1cd47c0&#45;7b8f&#45;49dc&#45;820a&#45;af16ae69b848 -->
<g id="node12" class="node"><title>f1cd47c0&#45;7b8f&#45;49dc&#45;820a&#45;af16ae69b848</title>
<ellipse fill="none" stroke="black" cx="944" cy="-251.5" rx="21.5" ry="21.5"/>
<text text-anchor="middle" x="944" y="-247.8" font-family="Times New Roman,serif" font-size="14.00">X</text>
</g>
<!-- 5635d4e4&#45;19ca&#45;4cfc&#45;92bd&#45;1523fd236e1c&#45;&gt;f1cd47c0&#45;7b8f&#45;49dc&#45;820a&#45;af16ae69b848 -->
<g id="edge11" class="edge"><title>5635d4e4&#45;19ca&#45;4cfc&#45;92bd&#45;1523fd236e1c&#45;&gt;f1cd47c0&#45;7b8f&#45;49dc&#45;820a&#45;af16ae69b848</title>
<path fill="none" stroke="black" d="M877.424,-315.017C889.793,-303.402 907.334,-286.93 921.306,-273.81"/>
<polygon fill="black" stroke="black" points="923.752,-276.315 928.646,-266.918 918.96,-271.212 923.752,-276.315"/>
</g>
<!-- 37871a6e&#45;5935&#45;43e5&#45;bbad&#45;845529f17269 -->
<g id="node18" class="node"><title>37871a6e&#45;5935&#45;43e5&#45;bbad&#45;845529f17269</title>
<ellipse fill="none" stroke="black" cx="1340" cy="-251.5" rx="21.5" ry="21.5"/>
<text text-anchor="middle" x="1340" y="-247.8" font-family="Times New Roman,serif" font-size="14.00">X</text>
</g>
<!-- 5635d4e4&#45;19ca&#45;4cfc&#45;92bd&#45;1523fd236e1c&#45;&gt;37871a6e&#45;5935&#45;43e5&#45;bbad&#45;845529f17269 -->
<g id="edge17" class="edge"><title>5635d4e4&#45;19ca&#45;4cfc&#45;92bd&#45;1523fd236e1c&#45;&gt;37871a6e&#45;5935&#45;43e5&#45;bbad&#45;845529f17269</title>
<path fill="none" stroke="black" d="M883.156,-326.092C959.192,-313.844 1218.88,-272.012 1308.94,-257.503"/>
<polygon fill="black" stroke="black" points="1309.5,-260.958 1318.82,-255.912 1308.39,-254.047 1309.5,-260.958"/>
</g>
<!-- 55fd3b87&#45;148d&#45;4ec8&#45;9106&#45;9722bfb79037 -->
<g id="node3" class="node"><title>55fd3b87&#45;148d&#45;4ec8&#45;9106&#45;9722bfb79037</title>
<polygon fill="none" stroke="black" points="180,-190.5 0,-190.5 0,-154.5 180,-154.5 180,-190.5"/>
<text text-anchor="middle" x="90" y="-170.6" font-family="Times New Roman,serif" font-size="8.00">X&#45;ray</text>
</g>
<!-- e9bb9261&#45;5621&#45;4894&#45;b8ac&#45;2f9029f3edeb&#45;&gt;55fd3b87&#45;148d&#45;4ec8&#45;9106&#45;9722bfb79037 -->
<g id="edge2" class="edge"><title>e9bb9261&#45;5621&#45;4894&#45;b8ac&#45;2f9029f3edeb&#45;&gt;55fd3b87&#45;148d&#45;4ec8&#45;9106&#45;9722bfb79037</title>
<path fill="none" stroke="black" d="M366.116,-245.086C325.173,-234.471 232.547,-210.457 165.857,-193.167"/>
<polygon fill="black" stroke="black" points="166.36,-189.681 155.802,-190.56 164.603,-196.457 166.36,-189.681"/>
</g>
<!-- 1b294f82&#45;9b39&#45;42b6&#45;95b1&#45;b3313ae45c9f -->
<g id="node4" class="node"><title>1b294f82&#45;9b39&#45;42b6&#45;95b1&#45;b3313ae45c9f</title>
<polygon fill="black" stroke="black" points="378,-190.5 198,-190.5 198,-154.5 378,-154.5 378,-190.5"/>
<text text-anchor="middle" x="288" y="-170.6" font-family="Times New Roman,serif" font-size="8.00">tau</text>
</g>
<!-- e9bb9261&#45;5621&#45;4894&#45;b8ac&#45;2f9029f3edeb&#45;&gt;1b294f82&#45;9b39&#45;42b6&#45;95b1&#45;b3313ae45c9f -->
<g id="edge3" class="edge"><title>e9bb9261&#45;5621&#45;4894&#45;b8ac&#45;2f9029f3edeb&#45;&gt;1b294f82&#45;9b39&#45;42b6&#45;95b1&#45;b3313ae45c9f</title>
<path fill="none" stroke="black" d="M370.206,-237.438C355.983,-226.376 335.241,-210.243 318.15,-196.95"/>
<polygon fill="black" stroke="black" points="320.141,-194.064 310.098,-190.687 315.843,-199.59 320.141,-194.064"/>
</g>
<!-- af2e8ff6&#45;b9cc&#45;4818&#45;b5a9&#45;0b54b702ec79 -->
<g id="node5" class="node"><title>af2e8ff6&#45;b9cc&#45;4818&#45;b5a9&#45;0b54b702ec79</title>
<polygon fill="black" stroke="black" points="576,-190.5 396,-190.5 396,-154.5 576,-154.5 576,-190.5"/>
<text text-anchor="middle" x="486" y="-170.6" font-family="Times New Roman,serif" font-size="8.00">tau</text>
</g>
<!-- e9bb9261&#45;5621&#45;4894&#45;b8ac&#45;2f9029f3edeb&#45;&gt;af2e8ff6&#45;b9cc&#45;4818&#45;b5a9&#45;0b54b702ec79 -->
<g id="edge4" class="edge"><title>e9bb9261&#45;5621&#45;4894&#45;b8ac&#45;2f9029f3edeb&#45;&gt;af2e8ff6&#45;b9cc&#45;4818&#45;b5a9&#45;0b54b702ec79</title>
<path fill="none" stroke="black" d="M403.794,-237.438C418.017,-226.376 438.759,-210.243 455.85,-196.95"/>
<polygon fill="black" stroke="black" points="458.157,-199.59 463.902,-190.687 453.859,-194.064 458.157,-199.59"/>
</g>
<!-- c0ca5699&#45;255c&#45;4029&#45;9b0e&#45;fd73fa584870 -->
<g id="node7" class="node"><title>c0ca5699&#45;255c&#45;4029&#45;9b0e&#45;fd73fa584870</title>
<ellipse fill="none" stroke="black" cx="616" cy="-172.5" rx="21.5" ry="21.5"/>
<text text-anchor="middle" x="616" y="-168.8" font-family="Times New Roman,serif" font-size="14.00">*</text>
</g>
<!-- 9b5787a2&#45;86c0&#45;4944&#45;94c2&#45;b20c7d6b1171&#45;&gt;c0ca5699&#45;255c&#45;4029&#45;9b0e&#45;fd73fa584870 -->
<g id="edge6" class="edge"><title>9b5787a2&#45;86c0&#45;4944&#45;94c2&#45;b20c7d6b1171&#45;&gt;c0ca5699&#45;255c&#45;4029&#45;9b0e&#45;fd73fa584870</title>
<path fill="none" stroke="black" d="M760.866,-241.516C732.181,-228.048 677.845,-202.537 644.486,-186.875"/>
<polygon fill="black" stroke="black" points="645.805,-183.627 635.265,-182.545 642.83,-189.964 645.805,-183.627"/>
</g>
<!-- 843cf630&#45;4db1&#45;479f&#45;bef7&#45;8553108d955b -->
<g id="node11" class="node"><title>843cf630&#45;4db1&#45;479f&#45;bef7&#45;8553108d955b</title>
<polygon fill="black" stroke="black" points="870,-190.5 690,-190.5 690,-154.5 870,-154.5 870,-190.5"/>
<text text-anchor="middle" x="780" y="-170.6" font-family="Times New Roman,serif" font-size="8.00">tau</text>
</g>
<!-- 9b5787a2&#45;86c0&#45;4944&#45;94c2&#45;b20c7d6b1171&#45;&gt;843cf630&#45;4db1&#45;479f&#45;bef7&#45;8553108d955b -->
<g id="edge10" class="edge"><title>9b5787a2&#45;86c0&#45;4944&#45;94c2&#45;b20c7d6b1171&#45;&gt;843cf630&#45;4db1&#45;479f&#45;bef7&#45;8553108d955b</title>
<path fill="none" stroke="black" d="M780,-229.865C780,-220.932 780,-210.35 780,-200.781"/>
<polygon fill="black" stroke="black" points="783.5,-200.55 780,-190.55 776.5,-200.55 783.5,-200.55"/>
</g>
<!-- a01da570&#45;58f8&#45;49e4&#45;b48f&#45;cf83e46a1c11 -->
<g id="node8" class="node"><title>a01da570&#45;58f8&#45;49e4&#45;b48f&#45;cf83e46a1c11</title>
<polygon fill="none" stroke="black" points="310,-111.5 130,-111.5 130,-75.5 310,-75.5 310,-111.5"/>
<text text-anchor="middle" x="220" y="-91.6" font-family="Times New Roman,serif" font-size="8.00">ECG</text>
</g>
<!-- c0ca5699&#45;255c&#45;4029&#45;9b0e&#45;fd73fa584870&#45;&gt;a01da570&#45;58f8&#45;49e4&#45;b48f&#45;cf83e46a1c11 -->
<g id="edge7" class="edge"><title>c0ca5699&#45;255c&#45;4029&#45;9b0e&#45;fd73fa584870&#45;&gt;a01da570&#45;58f8&#45;49e4&#45;b48f&#45;cf83e46a1c11</title>
<path fill="none" stroke="black" d="M599.368,-158.541C594.913,-155.633 589.953,-152.861 585,-151 473.322,-109.041 436.593,-135.107 319,-115 315.983,-114.484 312.918,-113.943 309.825,-113.384"/>
<polygon fill="black" stroke="black" points="310.349,-109.921 299.878,-111.538 309.072,-116.804 310.349,-109.921"/>
</g>
<!-- a26e2995&#45;ace3&#45;484f&#45;8d1d&#45;9d7dd92b6d97 -->
<g id="node9" class="node"><title>a26e2995&#45;ace3&#45;484f&#45;8d1d&#45;9d7dd92b6d97</title>
<polygon fill="black" stroke="black" points="508,-111.5 328,-111.5 328,-75.5 508,-75.5 508,-111.5"/>
<text text-anchor="middle" x="418" y="-91.6" font-family="Times New Roman,serif" font-size="8.00">tau</text>
</g>
<!-- c0ca5699&#45;255c&#45;4029&#45;9b0e&#45;fd73fa584870&#45;&gt;a26e2995&#45;ace3&#45;484f&#45;8d1d&#45;9d7dd92b6d97 -->
<g id="edge8" class="edge"><title>c0ca5699&#45;255c&#45;4029&#45;9b0e&#45;fd73fa584870&#45;&gt;a26e2995&#45;ace3&#45;484f&#45;8d1d&#45;9d7dd92b6d97</title>
<path fill="none" stroke="black" d="M599.09,-159.187C594.64,-156.266 589.752,-153.326 585,-151 555.239,-136.43 520.783,-124.079 490.925,-114.676"/>
<polygon fill="black" stroke="black" points="491.577,-111.214 480.99,-111.601 489.508,-117.901 491.577,-111.214"/>
</g>
<!-- e3d230f2&#45;87e3&#45;4298&#45;a0cb&#45;d03b07d01fab -->
<g id="node10" class="node"><title>e3d230f2&#45;87e3&#45;4298&#45;a0cb&#45;d03b07d01fab</title>
<polygon fill="black" stroke="black" points="706,-111.5 526,-111.5 526,-75.5 706,-75.5 706,-111.5"/>
<text text-anchor="middle" x="616" y="-91.6" font-family="Times New Roman,serif" font-size="8.00">tau</text>
</g>
<!-- c0ca5699&#45;255c&#45;4029&#45;9b0e&#45;fd73fa584870&#45;&gt;e3d230f2&#45;87e3&#45;4298&#45;a0cb&#45;d03b07d01fab -->
<g id="edge9" class="edge"><title>c0ca5699&#45;255c&#45;4029&#45;9b0e&#45;fd73fa584870&#45;&gt;e3d230f2&#45;87e3&#45;4298&#45;a0cb&#45;d03b07d01fab</title>
<path fill="none" stroke="black" d="M616,-150.865C616,-141.932 616,-131.35 616,-121.781"/>
<polygon fill="black" stroke="black" points="619.5,-121.55 616,-111.55 612.5,-121.55 619.5,-121.55"/>
</g>
<!-- 16300d81&#45;21b8&#45;485b&#45;b030&#45;8e321c09d40e -->
<g id="node13" class="node"><title>16300d81&#45;21b8&#45;485b&#45;b030&#45;8e321c09d40e</title>
<ellipse fill="none" stroke="black" cx="944" cy="-172.5" rx="21.5" ry="21.5"/>
<text text-anchor="middle" x="944" y="-168.8" font-family="Times New Roman,serif" font-size="14.00">*</text>
</g>
<!-- f1cd47c0&#45;7b8f&#45;49dc&#45;820a&#45;af16ae69b848&#45;&gt;16300d81&#45;21b8&#45;485b&#45;b030&#45;8e321c09d40e -->
<g id="edge12" class="edge"><title>f1cd47c0&#45;7b8f&#45;49dc&#45;820a&#45;af16ae69b848&#45;&gt;16300d81&#45;21b8&#45;485b&#45;b030&#45;8e321c09d40e</title>
<path fill="none" stroke="black" d="M944,-229.865C944,-222.011 944,-212.882 944,-204.288"/>
<polygon fill="black" stroke="black" points="947.5,-204.192 944,-194.192 940.5,-204.192 947.5,-204.192"/>
</g>
<!-- ad76e28c&#45;296b&#45;42a7&#45;b65e&#45;12439cb77803 -->
<g id="node17" class="node"><title>ad76e28c&#45;296b&#45;42a7&#45;b65e&#45;12439cb77803</title>
<polygon fill="black" stroke="black" points="1164,-190.5 984,-190.5 984,-154.5 1164,-154.5 1164,-190.5"/>
<text text-anchor="middle" x="1074" y="-170.6" font-family="Times New Roman,serif" font-size="8.00">tau</text>
</g>
<!-- f1cd47c0&#45;7b8f&#45;49dc&#45;820a&#45;af16ae69b848&#45;&gt;ad76e28c&#45;296b&#45;42a7&#45;b65e&#45;12439cb77803 -->
<g id="edge16" class="edge"><title>f1cd47c0&#45;7b8f&#45;49dc&#45;820a&#45;af16ae69b848&#45;&gt;ad76e28c&#45;296b&#45;42a7&#45;b65e&#45;12439cb77803</title>
<path fill="none" stroke="black" d="M962.076,-239.793C981.214,-228.458 1011.97,-210.24 1036.41,-195.767"/>
<polygon fill="black" stroke="black" points="1038.27,-198.732 1045.09,-190.625 1034.7,-192.71 1038.27,-198.732"/>
</g>
<!-- 97e2f0c3&#45;bb13&#45;47d0&#45;8425&#45;6947fdba1955 -->
<g id="node14" class="node"><title>97e2f0c3&#45;bb13&#45;47d0&#45;8425&#45;6947fdba1955</title>
<polygon fill="none" stroke="black" points="904,-111.5 724,-111.5 724,-75.5 904,-75.5 904,-111.5"/>
<text text-anchor="middle" x="814" y="-91.6" font-family="Times New Roman,serif" font-size="8.00">Echography</text>
</g>
<!-- 16300d81&#45;21b8&#45;485b&#45;b030&#45;8e321c09d40e&#45;&gt;97e2f0c3&#45;bb13&#45;47d0&#45;8425&#45;6947fdba1955 -->
<g id="edge13" class="edge"><title>16300d81&#45;21b8&#45;485b&#45;b030&#45;8e321c09d40e&#45;&gt;97e2f0c3&#45;bb13&#45;47d0&#45;8425&#45;6947fdba1955</title>
<path fill="none" stroke="black" d="M925.924,-160.793C906.786,-149.458 876.028,-131.24 851.594,-116.767"/>
<polygon fill="black" stroke="black" points="853.299,-113.71 842.912,-111.625 849.732,-119.732 853.299,-113.71"/>
</g>
<!-- 7893f142&#45;41ac&#45;4c89&#45;af63&#45;6c7588664f75 -->
<g id="node15" class="node"><title>7893f142&#45;41ac&#45;4c89&#45;af63&#45;6c7588664f75</title>
<polygon fill="black" stroke="black" points="1102,-111.5 922,-111.5 922,-75.5 1102,-75.5 1102,-111.5"/>
<text text-anchor="middle" x="1012" y="-91.6" font-family="Times New Roman,serif" font-size="8.00">tau</text>
</g>
<!-- 16300d81&#45;21b8&#45;485b&#45;b030&#45;8e321c09d40e&#45;&gt;7893f142&#45;41ac&#45;4c89&#45;af63&#45;6c7588664f75 -->
<g id="edge14" class="edge"><title>16300d81&#45;21b8&#45;485b&#45;b030&#45;8e321c09d40e&#45;&gt;7893f142&#45;41ac&#45;4c89&#45;af63&#45;6c7588664f75</title>
<path fill="none" stroke="black" d="M957.761,-155.918C967.057,-145.392 979.526,-131.272 990.165,-119.225"/>
<polygon fill="black" stroke="black" points="992.844,-121.479 996.84,-111.667 987.597,-116.845 992.844,-121.479"/>
</g>
<!-- a8e2131e&#45;9e59&#45;4385&#45;b0f0&#45;1a5a58507b30 -->
<g id="node16" class="node"><title>a8e2131e&#45;9e59&#45;4385&#45;b0f0&#45;1a5a58507b30</title>
<polygon fill="black" stroke="black" points="1300,-111.5 1120,-111.5 1120,-75.5 1300,-75.5 1300,-111.5"/>
<text text-anchor="middle" x="1210" y="-91.6" font-family="Times New Roman,serif" font-size="8.00">tau</text>
</g>
<!-- 16300d81&#45;21b8&#45;485b&#45;b030&#45;8e321c09d40e&#45;&gt;a8e2131e&#45;9e59&#45;4385&#45;b0f0&#45;1a5a58507b30 -->
<g id="edge15" class="edge"><title>16300d81&#45;21b8&#45;485b&#45;b030&#45;8e321c09d40e&#45;&gt;a8e2131e&#45;9e59&#45;4385&#45;b0f0&#45;1a5a58507b30</title>
<path fill="none" stroke="black" d="M960.771,-158.886C965.224,-155.971 970.148,-153.11 975,-151 988.92,-144.948 1062.18,-127.687 1123.25,-113.822"/>
<polygon fill="black" stroke="black" points="1124.35,-117.163 1133.33,-111.541 1122.8,-110.336 1124.35,-117.163"/>
</g>
<!-- 46d7921b&#45;6e6f&#45;443d&#45;947a&#45;7f6f6acc5b8c -->
<g id="node19" class="node"><title>46d7921b&#45;6e6f&#45;443d&#45;947a&#45;7f6f6acc5b8c</title>
<ellipse fill="none" stroke="black" cx="1340" cy="-172.5" rx="21.5" ry="21.5"/>
<text text-anchor="middle" x="1340" y="-168.8" font-family="Times New Roman,serif" font-size="14.00">X</text>
</g>
<!-- 37871a6e&#45;5935&#45;43e5&#45;bbad&#45;845529f17269&#45;&gt;46d7921b&#45;6e6f&#45;443d&#45;947a&#45;7f6f6acc5b8c -->
<g id="edge18" class="edge"><title>37871a6e&#45;5935&#45;43e5&#45;bbad&#45;845529f17269&#45;&gt;46d7921b&#45;6e6f&#45;443d&#45;947a&#45;7f6f6acc5b8c</title>
<path fill="none" stroke="black" d="M1340,-229.865C1340,-222.011 1340,-212.882 1340,-204.288"/>
<polygon fill="black" stroke="black" points="1343.5,-204.192 1340,-194.192 1336.5,-204.192 1343.5,-204.192"/>
</g>
<!-- 8c382d63&#45;0850&#45;4c8a&#45;8215&#45;1ebc4b464f61 -->
<g id="node28" class="node"><title>8c382d63&#45;0850&#45;4c8a&#45;8215&#45;1ebc4b464f61</title>
<polygon fill="black" stroke="black" points="1560,-190.5 1380,-190.5 1380,-154.5 1560,-154.5 1560,-190.5"/>
<text text-anchor="middle" x="1470" y="-170.6" font-family="Times New Roman,serif" font-size="8.00">tau</text>
</g>
<!-- 37871a6e&#45;5935&#45;43e5&#45;bbad&#45;845529f17269&#45;&gt;8c382d63&#45;0850&#45;4c8a&#45;8215&#45;1ebc4b464f61 -->
<g id="edge27" class="edge"><title>37871a6e&#45;5935&#45;43e5&#45;bbad&#45;845529f17269&#45;&gt;8c382d63&#45;0850&#45;4c8a&#45;8215&#45;1ebc4b464f61</title>
<path fill="none" stroke="black" d="M1358.08,-239.793C1377.21,-228.458 1407.97,-210.24 1432.41,-195.767"/>
<polygon fill="black" stroke="black" points="1434.27,-198.732 1441.09,-190.625 1430.7,-192.71 1434.27,-198.732"/>
</g>
<!-- 15a31608&#45;7296&#45;4457&#45;a58c&#45;aff7fcd4c500 -->
<g id="node20" class="node"><title>15a31608&#45;7296&#45;4457&#45;a58c&#45;aff7fcd4c500</title>
<ellipse fill="none" stroke="black" cx="1340" cy="-93.5" rx="21.5" ry="21.5"/>
<text text-anchor="middle" x="1340" y="-89.8" font-family="Times New Roman,serif" font-size="14.00">*</text>
</g>
<!-- 46d7921b&#45;6e6f&#45;443d&#45;947a&#45;7f6f6acc5b8c&#45;&gt;15a31608&#45;7296&#45;4457&#45;a58c&#45;aff7fcd4c500 -->
<g id="edge19" class="edge"><title>46d7921b&#45;6e6f&#45;443d&#45;947a&#45;7f6f6acc5b8c&#45;&gt;15a31608&#45;7296&#45;4457&#45;a58c&#45;aff7fcd4c500</title>
<path fill="none" stroke="black" d="M1340,-150.865C1340,-143.011 1340,-133.882 1340,-125.288"/>
<polygon fill="black" stroke="black" points="1343.5,-125.192 1340,-115.192 1336.5,-125.192 1343.5,-125.192"/>
</g>
<!-- 5692a675&#45;9849&#45;4865&#45;9eb2&#45;7bb808487e70 -->
<g id="node24" class="node"><title>5692a675&#45;9849&#45;4865&#45;9eb2&#45;7bb808487e70</title>
<ellipse fill="none" stroke="black" cx="1736" cy="-93.5" rx="21.5" ry="21.5"/>
<text text-anchor="middle" x="1736" y="-89.8" font-family="Times New Roman,serif" font-size="14.00">*</text>
</g>
<!-- 46d7921b&#45;6e6f&#45;443d&#45;947a&#45;7f6f6acc5b8c&#45;&gt;5692a675&#45;9849&#45;4865&#45;9eb2&#45;7bb808487e70 -->
<g id="edge23" class="edge"><title>46d7921b&#45;6e6f&#45;443d&#45;947a&#45;7f6f6acc5b8c&#45;&gt;5692a675&#45;9849&#45;4865&#45;9eb2&#45;7bb808487e70</title>
<path fill="none" stroke="black" d="M1356.66,-158.607C1361.11,-155.697 1366.07,-152.908 1371,-151 1487.99,-105.768 1639.3,-96.6722 1704.18,-94.8978"/>
<polygon fill="black" stroke="black" points="1704.27,-98.3966 1714.19,-94.6645 1704.11,-91.3985 1704.27,-98.3966"/>
</g>
<!-- beef461e&#45;ee5a&#45;45fe&#45;9391&#45;bce8f3c6d0d3 -->
<g id="node21" class="node"><title>beef461e&#45;ee5a&#45;45fe&#45;9391&#45;bce8f3c6d0d3</title>
<polygon fill="none" stroke="black" points="1133,-36 953,-36 953,-0 1133,-0 1133,-36"/>
<text text-anchor="middle" x="1043" y="-16.1" font-family="Times New Roman,serif" font-size="8.00">MRI</text>
</g>
<!-- 15a31608&#45;7296&#45;4457&#45;a58c&#45;aff7fcd4c500&#45;&gt;beef461e&#45;ee5a&#45;45fe&#45;9391&#45;bce8f3c6d0d3 -->
<g id="edge20" class="edge"><title>15a31608&#45;7296&#45;4457&#45;a58c&#45;aff7fcd4c500&#45;&gt;beef461e&#45;ee5a&#45;45fe&#45;9391&#45;bce8f3c6d0d3</title>
<path fill="none" stroke="black" d="M1323.29,-79.7535C1318.83,-76.8409 1313.89,-74.0138 1309,-72 1293.41,-65.5833 1212.02,-49.7602 1143.33,-37.0627"/>
<polygon fill="black" stroke="black" points="1143.77,-33.5841 1133.3,-35.2135 1142.5,-40.4682 1143.77,-33.5841"/>
</g>
<!-- 71d12c88&#45;c8a3&#45;459f&#45;85ec&#45;ad2aad043356 -->
<g id="node22" class="node"><title>71d12c88&#45;c8a3&#45;459f&#45;85ec&#45;ad2aad043356</title>
<polygon fill="black" stroke="black" points="1331,-36 1151,-36 1151,-0 1331,-0 1331,-36"/>
<text text-anchor="middle" x="1241" y="-16.1" font-family="Times New Roman,serif" font-size="8.00">tau</text>
</g>
<!-- 15a31608&#45;7296&#45;4457&#45;a58c&#45;aff7fcd4c500&#45;&gt;71d12c88&#45;c8a3&#45;459f&#45;85ec&#45;ad2aad043356 -->
<g id="edge21" class="edge"><title>15a31608&#45;7296&#45;4457&#45;a58c&#45;aff7fcd4c500&#45;&gt;71d12c88&#45;c8a3&#45;459f&#45;85ec&#45;ad2aad043356</title>
<path fill="none" stroke="black" d="M1323.21,-80.0317C1309.39,-69.7778 1289.43,-54.9589 1272.64,-42.4912"/>
<polygon fill="black" stroke="black" points="1274.31,-39.3732 1264.2,-36.2223 1270.14,-44.9936 1274.31,-39.3732"/>
</g>
<!-- efd0c225&#45;aaa3&#45;4fe2&#45;bb01&#45;5695198b7fe1 -->
<g id="node23" class="node"><title>efd0c225&#45;aaa3&#45;4fe2&#45;bb01&#45;5695198b7fe1</title>
<polygon fill="black" stroke="black" points="1529,-36 1349,-36 1349,-0 1529,-0 1529,-36"/>
<text text-anchor="middle" x="1439" y="-16.1" font-family="Times New Roman,serif" font-size="8.00">tau</text>
</g>
<!-- 15a31608&#45;7296&#45;4457&#45;a58c&#45;aff7fcd4c500&#45;&gt;efd0c225&#45;aaa3&#45;4fe2&#45;bb01&#45;5695198b7fe1 -->
<g id="edge22" class="edge"><title>15a31608&#45;7296&#45;4457&#45;a58c&#45;aff7fcd4c500&#45;&gt;efd0c225&#45;aaa3&#45;4fe2&#45;bb01&#45;5695198b7fe1</title>
<path fill="none" stroke="black" d="M1356.79,-80.0317C1370.61,-69.7778 1390.57,-54.9589 1407.36,-42.4912"/>
<polygon fill="black" stroke="black" points="1409.86,-44.9936 1415.8,-36.2223 1405.69,-39.3732 1409.86,-44.9936"/>
</g>
<!-- 10a915b8&#45;8506&#45;4789&#45;8f92&#45;1b760af1425f -->
<g id="node25" class="node"><title>10a915b8&#45;8506&#45;4789&#45;8f92&#45;1b760af1425f</title>
<polygon fill="none" stroke="black" points="1727,-36 1547,-36 1547,-0 1727,-0 1727,-36"/>
<text text-anchor="middle" x="1637" y="-16.1" font-family="Times New Roman,serif" font-size="8.00">CT</text>
</g>
<!-- 5692a675&#45;9849&#45;4865&#45;9eb2&#45;7bb808487e70&#45;&gt;10a915b8&#45;8506&#45;4789&#45;8f92&#45;1b760af1425f -->
<g id="edge24" class="edge"><title>5692a675&#45;9849&#45;4865&#45;9eb2&#45;7bb808487e70&#45;&gt;10a915b8&#45;8506&#45;4789&#45;8f92&#45;1b760af1425f</title>
<path fill="none" stroke="black" d="M1719.21,-80.0317C1705.39,-69.7778 1685.43,-54.9589 1668.64,-42.4912"/>
<polygon fill="black" stroke="black" points="1670.31,-39.3732 1660.2,-36.2223 1666.14,-44.9936 1670.31,-39.3732"/>
</g>
<!-- 743c8c5d&#45;aa28&#45;430e&#45;96db&#45;9a8a12142c22 -->
<g id="node26" class="node"><title>743c8c5d&#45;aa28&#45;430e&#45;96db&#45;9a8a12142c22</title>
<polygon fill="black" stroke="black" points="1925,-36 1745,-36 1745,-0 1925,-0 1925,-36"/>
<text text-anchor="middle" x="1835" y="-16.1" font-family="Times New Roman,serif" font-size="8.00">tau</text>
</g>
<!-- 5692a675&#45;9849&#45;4865&#45;9eb2&#45;7bb808487e70&#45;&gt;743c8c5d&#45;aa28&#45;430e&#45;96db&#45;9a8a12142c22 -->
<g id="edge25" class="edge"><title>5692a675&#45;9849&#45;4865&#45;9eb2&#45;7bb808487e70&#45;&gt;743c8c5d&#45;aa28&#45;430e&#45;96db&#45;9a8a12142c22</title>
<path fill="none" stroke="black" d="M1752.79,-80.0317C1766.61,-69.7778 1786.57,-54.9589 1803.36,-42.4912"/>
<polygon fill="black" stroke="black" points="1805.86,-44.9936 1811.8,-36.2223 1801.69,-39.3732 1805.86,-44.9936"/>
</g>
<!-- 977ca158&#45;4e87&#45;4934&#45;a42a&#45;dece0988363e -->
<g id="node27" class="node"><title>977ca158&#45;4e87&#45;4934&#45;a42a&#45;dece0988363e</title>
<polygon fill="black" stroke="black" points="2123,-36 1943,-36 1943,-0 2123,-0 2123,-36"/>
<text text-anchor="middle" x="2033" y="-16.1" font-family="Times New Roman,serif" font-size="8.00">tau</text>
</g>
<!-- 5692a675&#45;9849&#45;4865&#45;9eb2&#45;7bb808487e70&#45;&gt;977ca158&#45;4e87&#45;4934&#45;a42a&#45;dece0988363e -->
<g id="edge26" class="edge"><title>5692a675&#45;9849&#45;4865&#45;9eb2&#45;7bb808487e70&#45;&gt;977ca158&#45;4e87&#45;4934&#45;a42a&#45;dece0988363e</title>
<path fill="none" stroke="black" d="M1756.88,-87.3316C1797.2,-77.3548 1887.62,-54.9769 1954.06,-38.5365"/>
<polygon fill="black" stroke="black" points="1955.22,-41.8538 1964.09,-36.054 1953.54,-35.0588 1955.22,-41.8538"/>
</g>
</g>
</svg>
